solid test.stl
facet normal 0.000000 -0.000383 0.000000
  outer loop
    vertex 0.569430 0.690849 0.000000
    vertex 0.569430 0.690849 0.100000
    vertex 0.565598 0.690848 0.000000
  endloop
endfacet
facet normal -0.000000 0.000383 0.000000
  outer loop
    vertex 0.569430 0.690849 0.100000
    vertex 0.565598 0.690848 0.000000
    vertex 0.565598 0.690848 0.100000
  endloop
endfacet
facet normal 0.000001 -0.000404 0.000000
  outer loop
    vertex 0.565598 0.690848 0.000000
    vertex 0.565598 0.690848 0.100000
    vertex 0.561556 0.690839 0.000000
  endloop
endfacet
facet normal -0.000005 0.000861 0.000000
  outer loop
    vertex 0.565598 0.690848 0.100000
    vertex 0.561556 0.690839 0.000000
    vertex 0.556983 0.690803 0.100000
  endloop
endfacet
facet normal 0.000013 -0.001003 0.000000
  outer loop
    vertex 0.561556 0.690839 0.000000
    vertex 0.556983 0.690803 0.100000
    vertex 0.551523 0.690712 0.000000
  endloop
endfacet
facet normal -0.000027 0.001211 0.000000
  outer loop
    vertex 0.556983 0.690803 0.100000
    vertex 0.551523 0.690712 0.000000
    vertex 0.544877 0.690534 0.100000
  endloop
endfacet
facet normal 0.000048 -0.001467 0.000001
  outer loop
    vertex 0.551523 0.690712 0.000000
    vertex 0.544877 0.690534 0.100000
    vertex 0.536854 0.690233 0.000000
  endloop
endfacet
facet normal -0.000076 0.001749 0.000001
  outer loop
    vertex 0.544877 0.690534 0.100000
    vertex 0.536854 0.690233 0.000000
    vertex 0.527392 0.689776 0.100000
  endloop
endfacet
facet normal 0.000110 -0.002030 0.000001
  outer loop
    vertex 0.536854 0.690233 0.000000
    vertex 0.527392 0.689776 0.100000
    vertex 0.516559 0.689130 0.000000
  endloop
endfacet
facet normal -0.000151 0.002285 0.000002
  outer loop
    vertex 0.527392 0.689776 0.100000
    vertex 0.516559 0.689130 0.000000
    vertex 0.504542 0.688270 0.100000
  endloop
endfacet
facet normal 0.000195 -0.002493 0.000002
  outer loop
    vertex 0.516559 0.689130 0.000000
    vertex 0.504542 0.688270 0.100000
    vertex 0.491629 0.687175 0.000000
  endloop
endfacet
facet normal -0.000244 0.002636 0.000003
  outer loop
    vertex 0.504542 0.688270 0.100000
    vertex 0.491629 0.687175 0.000000
    vertex 0.478182 0.685834 0.100000
  endloop
endfacet
facet normal 0.000294 -0.002702 0.000003
  outer loop
    vertex 0.491629 0.687175 0.000000
    vertex 0.478182 0.685834 0.100000
    vertex 0.464610 0.684240 0.000000
  endloop
endfacet
facet normal -0.000344 0.002683 0.000004
  outer loop
    vertex 0.478182 0.685834 0.100000
    vertex 0.464610 0.684240 0.000000
    vertex 0.451351 0.682397 0.100000
  endloop
endfacet
facet normal 0.000393 -0.002577 0.000005
  outer loop
    vertex 0.464610 0.684240 0.000000
    vertex 0.451351 0.682397 0.100000
    vertex 0.438843 0.680313 0.000000
  endloop
endfacet
facet normal -0.000439 0.002385 0.000005
  outer loop
    vertex 0.451351 0.682397 0.100000
    vertex 0.438843 0.680313 0.000000
    vertex 0.427503 0.678003 0.100000
  endloop
endfacet
facet normal 0.000483 -0.002112 0.000006
  outer loop
    vertex 0.438843 0.680313 0.000000
    vertex 0.427503 0.678003 0.100000
    vertex 0.417718 0.675482 0.000000
  endloop
endfacet
facet normal -0.000524 0.001768 0.000007
  outer loop
    vertex 0.427503 0.678003 0.100000
    vertex 0.417718 0.675482 0.000000
    vertex 0.409825 0.672764 0.100000
  endloop
endfacet
facet normal 0.000562 -0.001361 0.000007
  outer loop
    vertex 0.417718 0.675482 0.000000
    vertex 0.409825 0.672764 0.100000
    vertex 0.404104 0.669860 0.000000
  endloop
endfacet
facet normal -0.000599 0.000905 0.000008
  outer loop
    vertex 0.409825 0.672764 0.100000
    vertex 0.404104 0.669860 0.000000
    vertex 0.400777 0.666773 0.100000
  endloop
endfacet
facet normal 0.000637 -0.000410 0.000009
  outer loop
    vertex 0.404104 0.669860 0.000000
    vertex 0.400777 0.666773 0.100000
    vertex 0.400000 0.663490 0.000000
  endloop
endfacet
facet normal -0.000679 -0.000110 0.000009
  outer loop
    vertex 0.400777 0.666773 0.100000
    vertex 0.400000 0.663490 0.000000
    vertex 0.401872 0.659984 0.100000
  endloop
endfacet
facet normal 0.000728 0.000644 0.000009
  outer loop
    vertex 0.400000 0.663490 0.000000
    vertex 0.401872 0.659984 0.100000
    vertex 0.406437 0.656205 0.000000
  endloop
endfacet
facet normal -0.000791 -0.001182 0.000009
  outer loop
    vertex 0.401872 0.659984 0.100000
    vertex 0.406437 0.656205 0.000000
    vertex 0.413690 0.652078 0.100000
  endloop
endfacet
facet normal 0.000870 0.001715 0.000008
  outer loop
    vertex 0.406437 0.656205 0.000000
    vertex 0.413690 0.652078 0.100000
    vertex 0.423590 0.647501 0.000000
  endloop
endfacet
facet normal -0.000974 -0.002238 0.000006
  outer loop
    vertex 0.413690 0.652078 0.100000
    vertex 0.423590 0.647501 0.000000
    vertex 0.436070 0.642341 0.100000
  endloop
endfacet
facet normal 0.001107 0.002746 0.000004
  outer loop
    vertex 0.423590 0.647501 0.000000
    vertex 0.436070 0.642341 0.100000
    vertex 0.451048 0.636432 0.000000
  endloop
endfacet
facet normal -0.001276 -0.003237 0.000000
  outer loop
    vertex 0.436070 0.642341 0.100000
    vertex 0.451048 0.636432 0.000000
    vertex 0.468441 0.629580 0.100000
  endloop
endfacet
facet normal 0.001487 0.003712 -0.000004
  outer loop
    vertex 0.451048 0.636432 0.000000
    vertex 0.468441 0.629580 0.100000
    vertex 0.488172 0.621566 0.000000
  endloop
endfacet
facet normal -0.001743 -0.004174 -0.000009
  outer loop
    vertex 0.468441 0.629580 0.100000
    vertex 0.488172 0.621566 0.000000
    vertex 0.510186 0.612148 0.100000
  endloop
endfacet
facet normal 0.002049 0.004628 -0.000015
  outer loop
    vertex 0.488172 0.621566 0.000000
    vertex 0.510186 0.612148 0.100000
    vertex 0.534448 0.601072 0.000000
  endloop
endfacet
facet normal -0.002406 -0.005077 -0.000021
  outer loop
    vertex 0.510186 0.612148 0.100000
    vertex 0.534448 0.601072 0.000000
    vertex 0.560955 0.588085 0.100000
  endloop
endfacet
facet normal 0.002812 0.005528 -0.000028
  outer loop
    vertex 0.534448 0.601072 0.000000
    vertex 0.560955 0.588085 0.100000
    vertex 0.589729 0.572950 0.000000
  endloop
endfacet
facet normal -0.003262 -0.005986 -0.000033
  outer loop
    vertex 0.560955 0.588085 0.100000
    vertex 0.589729 0.572950 0.000000
    vertex 0.620813 0.555461 0.100000
  endloop
endfacet
facet normal 0.003748 0.006453 -0.000036
  outer loop
    vertex 0.589729 0.572950 0.000000
    vertex 0.620813 0.555461 0.100000
    vertex 0.654261 0.535470 0.000000
  endloop
endfacet
facet normal -0.004256 -0.006931 -0.000038
  outer loop
    vertex 0.620813 0.555461 0.100000
    vertex 0.654261 0.535470 0.000000
    vertex 0.690120 0.512905 0.100000
  endloop
endfacet
facet normal 0.004767 0.007415 -0.000036
  outer loop
    vertex 0.654261 0.535470 0.000000
    vertex 0.690120 0.512905 0.100000
    vertex 0.728409 0.487799 0.000000
  endloop
endfacet
facet normal -0.005259 -0.007897 -0.000031
  outer loop
    vertex 0.690120 0.512905 0.100000
    vertex 0.728409 0.487799 0.000000
    vertex 0.769091 0.460319 0.100000
  endloop
endfacet
facet normal 0.005702 0.008364 -0.000021
  outer loop
    vertex 0.728409 0.487799 0.000000
    vertex 0.769091 0.460319 0.100000
    vertex 0.812044 0.430783 0.000000
  endloop
endfacet
facet normal -0.006063 -0.008794 -0.000007
  outer loop
    vertex 0.769091 0.460319 0.100000
    vertex 0.812044 0.430783 0.000000
    vertex 0.857027 0.399685 0.100000
  endloop
endfacet
facet normal 0.006307 0.009160 0.000011
  outer loop
    vertex 0.812044 0.430783 0.000000
    vertex 0.857027 0.399685 0.100000
    vertex 0.903648 0.367708 0.000000
  endloop
endfacet
facet normal -0.006396 -0.009431 0.000034
  outer loop
    vertex 0.857027 0.399685 0.100000
    vertex 0.903648 0.367708 0.000000
    vertex 0.951334 0.335721 0.100000
  endloop
endfacet
facet normal 0.006294 0.009566 0.000058
  outer loop
    vertex 0.903648 0.367708 0.000000
    vertex 0.951334 0.335721 0.100000
    vertex 0.999311 0.304764 0.000000
  endloop
endfacet
facet normal -0.005972 -0.009526 0.000084
  outer loop
    vertex 0.951334 0.335721 0.100000
    vertex 0.999311 0.304764 0.000000
    vertex 1.046597 0.276003 0.100000
  endloop
endfacet
facet normal 0.005411 0.009270 0.000107
  outer loop
    vertex 0.999311 0.304764 0.000000
    vertex 1.046597 0.276003 0.100000
    vertex 1.092013 0.250651 0.000000
  endloop
endfacet
facet normal -0.004615 -0.008762 0.000125
  outer loop
    vertex 1.046597 0.276003 0.100000
    vertex 1.092013 0.250651 0.000000
    vertex 1.134220 0.229851 0.100000
  endloop
endfacet
facet normal 0.003616 0.007978 0.000133
  outer loop
    vertex 1.092013 0.250651 0.000000
    vertex 1.134220 0.229851 0.100000
    vertex 1.171795 0.214487 0.000000
  endloop
endfacet
facet normal -0.002492 -0.006913 0.000126
  outer loop
    vertex 1.134220 0.229851 0.100000
    vertex 1.171795 0.214487 0.000000
    vertex 1.203353 0.204934 0.100000
  endloop
endfacet
facet normal 0.001378 0.005593 0.000099
  outer loop
    vertex 1.171795 0.214487 0.000000
    vertex 1.203353 0.204934 0.100000
    vertex 1.227728 0.200708 0.000000
  endloop
endfacet
facet normal -0.000493 -0.004087 0.000052
  outer loop
    vertex 1.203353 0.204934 0.100000
    vertex 1.227728 0.200708 0.000000
    vertex 1.244227 0.200000 0.100000
  endloop
endfacet
facet normal 0.000071 0.001650 0.000000
  outer loop
    vertex 1.227728 0.200708 0.000000
    vertex 1.244227 0.200000 0.100000
    vertex 1.244227 0.200000 0.000000
  endloop
endfacet
facet normal 0.000000 -0.040000 0.000000
  outer loop
    vertex 1.244227 0.200000 0.100000
    vertex 1.244227 0.200000 0.000000
    vertex 1.644227 0.200000 0.100000
  endloop
endfacet
facet normal 0.000000 0.040000 0.000000
  outer loop
    vertex 1.244227 0.200000 0.000000
    vertex 1.644227 0.200000 0.100000
    vertex 1.644227 0.200000 0.000000
  endloop
endfacet
facet normal -0.020000 -0.000000 -0.000000
  outer loop
    vertex 1.644227 0.200000 0.100000
    vertex 1.644227 0.200000 0.000000
    vertex 1.644227 0.000000 0.100000
  endloop
endfacet
facet normal 0.020000 0.000000 0.000000
  outer loop
    vertex 1.644227 0.200000 0.000000
    vertex 1.644227 0.000000 0.100000
    vertex 1.644227 0.000000 0.000000
  endloop
endfacet
facet normal 0.000000 0.164423 0.000000
  outer loop
    vertex 1.644227 0.000000 0.100000
    vertex 1.644227 0.000000 0.000000
    vertex 0.000000 0.000000 0.100000
  endloop
endfacet
facet normal 0.000000 -0.164423 0.000000
  outer loop
    vertex 1.644227 0.000000 0.000000
    vertex 0.000000 0.000000 0.100000
    vertex 0.000000 0.000000 0.000000
  endloop
endfacet
facet normal 0.080000 -0.000000 0.000000
  outer loop
    vertex 0.000000 0.000000 0.100000
    vertex 0.000000 0.000000 0.000000
    vertex 0.000000 0.800000 0.100000
  endloop
endfacet
facet normal -0.080000 0.000000 0.000000
  outer loop
    vertex 0.000000 0.000000 0.000000
    vertex 0.000000 0.800000 0.100000
    vertex 0.000000 0.800000 0.000000
  endloop
endfacet
facet normal 0.000000 -0.082211 0.000000
  outer loop
    vertex 0.000000 0.800000 0.100000
    vertex 0.000000 0.800000 0.000000
    vertex 0.822113 0.800000 0.100000
  endloop
endfacet
facet normal 0.000000 0.082211 0.000000
  outer loop
    vertex 0.000000 0.800000 0.000000
    vertex 0.822113 0.800000 0.100000
    vertex 0.822113 0.800000 0.000000
  endloop
endfacet
facet normal -0.010915 -0.000000 -0.000000
  outer loop
    vertex 0.822113 0.800000 0.100000
    vertex 0.822113 0.800000 0.000000
    vertex 0.822113 0.690849 0.100000
  endloop
endfacet
facet normal 0.010915 0.000000 0.000000
  outer loop
    vertex 0.822113 0.800000 0.000000
    vertex 0.822113 0.690849 0.100000
    vertex 0.822113 0.690849 0.000000
  endloop
endfacet
facet normal 0.000000 0.025268 0.000000
  outer loop
    vertex 0.822113 0.690849 0.100000
    vertex 0.822113 0.690849 0.000000
    vertex 0.569430 0.690849 0.100000
  endloop
endfacet
facet normal 0.000000 -0.025268 0.000000
  outer loop
    vertex 0.822113 0.690849 0.000000
    vertex 0.569430 0.690849 0.100000
    vertex 0.569430 0.690849 0.000000
  endloop
endfacet
endsolid test.stl
